<?xml version="1.0" encoding="UTF-8" standalone="no"?>
<!-- Created with Inkscape (http://www.inkscape.org/) -->
<svg xmlns:inkscape="http://www.inkscape.org/namespaces/inkscape" xmlns:rdf="http://www.w3.org/1999/02/22-rdf-syntax-ns#" xmlns="http://www.w3.org/2000/svg" xmlns:xlink="http://www.w3.org/1999/xlink" xmlns:ns1="http://sozi.baierouge.fr" xmlns:cc="http://creativecommons.org/ns#" xmlns:dc="http://purl.org/dc/elements/1.1/" xmlns:sodipodi="http://sodipodi.sourceforge.net/DTD/sodipodi-0.dtd" id="svg2" sodipodi:docname="alien.svg" viewBox="0 0 163.96 221.92" version="1.1" inkscape:version="0.48.4 r9939">


  <g id="layer1" inkscape:label="Layer 1" inkscape:groupmode="layer" transform="translate(-209.06 -260.41)">
    <path id="path3050" sodipodi:nodetypes="sssssssssscccccccc"  inkscape:connector-curvature="0" d="m291.89 260.41c-18.251 0-43.721 6.2351-60.096 26.606-15.73 19.569-22.728 52.669-22.728 82.251 0 26.435 15.291 50.249 28.681 69.957 17.194 25.307 35.171 43.108 55.288 43.108 19.778 0 39.687-22.334 55.431-46.8 12.74-19.798 24.558-42.715 24.558-69.721 0-27.784-1.6602-52.466-15.269-71.754-7.3979-10.485-16.079-18.942-27.179-24.502-12.854-6.4389-28.32-9.1454-38.686-9.1454zm-70.773 115.64c58.748 10.474 60.106 55.912 61.9 56.447-0.9362 0.0273-54.562 1.337-61.9-56.447zm140.86 0.28624c-16.131 57.275-61.269 54.374-62.229 56.075-0.00079 0.0113-0.0143 0.10019-0.0143 0.10019-0.0136-0.0356-0.004-0.0682 0.0143-0.10019 0.0762-1.0918 4.0924-54.433 62.229-56.075z"/>
  </g>

  <metadata>
    <rdf:RDF>
      <cc:Work>
        <dc:format>image/svg+xml</dc:format>
        <dc:type rdf:resource="http://purl.org/dc/dcmitype/StillImage"/>
        <cc:license rdf:resource="http://creativecommons.org/licenses/publicdomain/"/>
        <dc:publisher>
          <cc:Agent rdf:about="http://openclipart.org/">
            <dc:title>Openclipart</dc:title>
          </cc:Agent>
        </dc:publisher>
      </cc:Work>
      <cc:License rdf:about="http://creativecommons.org/licenses/publicdomain/">
        <cc:permits rdf:resource="http://creativecommons.org/ns#Reproduction"/>
        <cc:permits rdf:resource="http://creativecommons.org/ns#Distribution"/>
        <cc:permits rdf:resource="http://creativecommons.org/ns#DerivativeWorks"/>
      </cc:License>
    </rdf:RDF>
  </metadata>
</svg>
